# AST/ASF file generated using VICON BodyLanguage
# -----------------------------------------------
:version 1.10
:name VICON
:units
  mass 1.0
  length 0.45
  angle deg
:documentation
   .ast/.asf automatically generated from VICON data using
   VICON BodyBuilder and BodyLanguage model FoxedUp or BRILLIANT.MOD
:root
   order TX TY TZ RX RY RZ
   axis XYZ
   position 0 0 0  
   orientation 0 0 0 
:bonedata
  begin
     id 1 
     name lhipjoint
     direction 0.611804 -0.747784 0.257906 
     length 2.29243 
     axis 0 0 0  XYZ
  end
  begin
     id 2 
     name lfemur
     direction 0.34202 -0.939693 0  
     length 7.31159  
     axis 0 0 20  XYZ
    dof rx ry rz
    limits (-160.0 20.0)
           (-70.0 70.0)
           (-60.0 70.0)
  end
  begin
     id 3 
     name ltibia
     direction 0.34202 -0.939693 0   
     length 7.33391   
     axis 0 0 20   XYZ
    dof rx
    limits (-10.0 170.0)
  end
  begin
     id 4 
     name lfoot
     direction 0.122263 -0.335914 0.933924   
     length 1.76083   
     axis -90 7.62852e-016 20   XYZ
    dof rx rz
    limits (-45.0 90.0)
           (-70.0 20.0)
  end
  begin
     id 5 
     name ltoes
     direction 1.53533e-011 -4.2177e-011 1   
     length 0.879206   
     axis -90 7.62852e-016 20   XYZ
    dof rx
    limits (-90.0 20.0)
  end
  begin
     id 6 
     name rhipjoint
     direction -0.646469 -0.721248 0.248754   
     length 2.37677  
     axis 0 0 0  XYZ 
  end
  begin
     id 7 
     name rfemur
     direction -0.34202 -0.939693 0   
     length 7.18623   
     axis 0 0 -20   XYZ
    dof rx ry rz
    limits (-160.0 20.0)
           (-70.0 70.0)
           (-70.0 60.0)
  end
  begin
     id 8 
     name rtibia
     direction -0.34202 -0.939693 0   
     length 7.36567   
     axis 0 0 -20   XYZ
    dof rx
    limits (-10.0 170.0)
 end
 begin
     id 9 
     name rfoot
     direction -0.126681 -0.348054 0.928876   
     length 1.71902  
     axis -90 -7.62852e-016 -20   XYZ
    dof rx rz
    limits (-45.0 90.0)
           (-20.0 70.0)
  end
  begin
     id 10 
     name rtoes
     direction -1.53551e-011 -4.21898e-011 1   
     length 0.857792   
     axis -90 -7.62852e-016 -20   XYZ
    dof rx
    limits (-90.0 20.0)
  end
  begin
     id 11 
     name lowerback
     direction 0.0106509 0.999778 0.0181844   
     length 2.07668   
     axis 0 0 0   XYZ
    dof rx ry rz
    limits (-20.0 45.0)
           (-30.0 30.0)
           (-30.0 30.0)
  end
  begin
     id 12 
     name upperback
     direction -0.00456018 0.999989 -0.000590935   
     length 2.08011   
     axis 0 0 0   XYZ
    dof rx ry rz
    limits (-20.0 45.0)
           (-30.0 30.0)
           (-30.0 30.0)
  end
  begin
     id 13 
     name thorax
     direction -0.00910382 0.999916 -0.00923765   
     length 2.07397   
     axis 0 0 0   XYZ
    dof rx ry rz
    limits (-20.0 45.0)
           (-30.0 30.0)
           (-30.0 30.0)
  end
  begin
     id 14 
     name lowerneck
     direction 0.00171967 0.99778 0.0665733   
     length 1.67556   
     axis 0 0 0   XYZ
    dof rx ry rz
    limits (-20.0 45.0)
           (-30.0 30.0)
           (-30.0 30.0)
  end
  begin
     id 15 
     name upperneck
     direction -0.0143166 0.991302 -0.130828   
     length 1.68462   
     axis 0 0 0   XYZ
    dof rx ry rz
    limits (-20.0 45.0)
           (-30.0 30.0)
           (-30.0 30.0)
  end
  begin
     id 16
     name head
     direction -0.00606378 0.998665 -0.0512995  
     length 1.69269  
     axis 0 0 0   XYZ
    dof rx ry rz
    limits (-20.0 45.0)
           (-30.0 30.0)
           (-30.0 30.0)
  end
  begin
     id 17 
     name lclavicle
     direction 0.9638 0.179341 0.197297  
     length 4.12888  
     axis 0 0 0   XYZ
    dof ry rz
    limits (-20.0 10.0)
           (0.0 20.0)
  end
  begin
     id 18 
     name lhumerus
     direction 1 -4.48972e-011 -2.47351e-027   
     length 5.01834   
     axis -180 -30 -90   XYZ
    dof rx ry rz
    limits (-60.0 90.0)
           (-90.0 90.0)
           (-90.0 90.0)
  end
  begin
     id 19
     name lradius
     direction 1 -4.48965e-011 1.51591e-026   
     length 3.4869   
     axis -180 -30 -90   XYZ
    dof rx
    limits (-10.0 170.0)
  end
  begin
     id 20
     name lwrist
     direction 1 -4.48957e-011 2.70032e-026   
     length 1.74345   
     axis -1.81515e-014 90 90   XYZ
    dof ry
    limits (-180.0 0.0)
 end
  begin
     id 21 
     name lhand
     direction 1 -4.48951e-011 5.40064e-026   
     length 0.76799   
     axis -3.44607e-014 90 90   XYZ
    dof rx rz
    limits (-90.0 90.0)
           (-45.0 45.0)
  end
  begin
     id 22 
     name lfingers
     direction 1 -4.48971e-011 1.08013e-025   
     length 0.619174   
     axis -6.89214e-014 90 90   XYZ
    dof rx
    limits (0.0 90.0)
  end
  begin
     id 23
     name lthumb
     direction 0.707107 -6.34931e-011 0.707107   
     length 0.889013   
     axis -90 45 2.85299e-015   XYZ
    dof rx rz
    limits (-45.0 45.0)
           (-45.0 45.0)
  end
  begin
     id 24 
     name rclavicle
     direction -0.961409 0.252588 0.109054   
     length 4.04305  
     axis 0 0 0   XYZ 
    dof ry rz
    limits (-10.0 20.0)
           (-20.0 0.0)
  end
  begin
     id 25 
     name rhumerus
     direction -1 -4.4897e-011 1.33872e-017  
     length 4.70164   
     axis -180 30 90   XYZ
    dof rx ry rz
    limits (-90.0 60.0)
           (-90.0 90.0)
           (-90.0 90.0)
  end
  begin
     id 26 
     name rradius
     direction -1 -4.48954e-011 1.83844e-026   
     length 3.49911   
     axis -180 30 90   XYZ
    dof rx
    limits (-10.0 170.0)
  end
  begin
     id 27 
     name rwrist
     direction -1 -4.49008e-011 2.70032e-026   
     length 1.74955   
     axis -1.81515e-014 -90 -90   XYZ
    dof ry
    limits (-180.0 0.0)
  end
  begin
     id 28
     name rhand
     direction -1 -4.48916e-011 5.40064e-026   
     length 0.739335   
     axis -3.44607e-014 -90 -90   XYZ
    dof rx rz
    limits (-90.0 90.0)
           (-45.0 45.0)
  end
  begin
     id 29
     name rfingers
     direction -1 -4.48987e-011 1.08013e-025   
     length 0.596071   
     axis -6.89214e-014 -90 -90   XYZ
    dof rx
    limits (0.0 90.0)
  end
  begin
     id 30
     name rthumb
     direction -0.707107 -6.34935e-011 0.707107   
     length 0.855843   
     axis -90 -45 -2.85299e-015   XYZ
    dof rx rz
    limits (-45.0 45.0)
           (-45.0 45.0)
  end
:hierarchy
  begin
    root lhipjoint rhipjoint lowerback
    lhipjoint lfemur
    lfemur ltibia
    ltibia lfoot
    lfoot ltoes
    rhipjoint rfemur
    rfemur rtibia
    rtibia rfoot
    rfoot rtoes
    lowerback upperback
    upperback thorax
    thorax lowerneck lclavicle rclavicle
    lowerneck upperneck
    upperneck head
    lclavicle lhumerus
    lhumerus lradius
    lradius lwrist
    lwrist lhand lthumb
    lhand lfingers
    rclavicle rhumerus
    rhumerus rradius
    rradius rwrist
    rwrist rhand rthumb
    rhand rfingers
  end

#!OML:ASF I:\salsa\salsa 7_09\Patient 1\Session 1\dancermale.ASF
:FULLY-SPECIFIED
:DEGREES
71
root -14.693 17.5105 0.392726 31.1153 89.1243 24.7254
lowerback -5.87977 1.26835 3.01416
upperback 1.05027 1.50987 -0.968766
thorax 4.49397 0.840516 -2.55031
lowerneck -4.4032 -10.9582 -4.37272
upperneck 7.55407 -14.5176 2.23029
head 3.76798 -7.2227 0.745629
rclavicle 6.31161e-015 -6.07846e-015
rhumerus -43.4117 31.0628 -110.617
rradius 109.079
rwrist -9.15223
rhand -8.72971 -2.05506
rfingers 7.12502
rthumb 17.2066 -31.3133
lclavicle 6.31161e-015 -6.07846e-015
lhumerus -41.8098 -35.4755 106.476
lradius 105.353
lwrist 7.46958
lhand -12.7647 44.0326
lfingers 7.12502
lthumb 13.32 73.5869
rfemur -8.49507 4.47476 20.0927
rtibia 11.389
rfoot -15.3416 -9.26111
rtoes 5.73865
lfemur -15.427 -2.33831 -17.7493
ltibia 26.6809
lfoot -19.3363 10.4452
ltoes 0.260138
72
root -14.6638 17.5128 0.374687 29.7983 89.3003 23.4311
lowerback -5.85667 1.20349 3.10175
upperback 0.789624 1.41934 -0.950656
thorax 4.20511 0.789724 -2.59264
lowerneck -4.23794 -10.8972 -4.37333
upperneck 7.79408 -14.4329 2.09795
head 3.80613 -7.18555 0.711456
rclavicle -1.40935e-016 6.63133e-015
rhumerus -43.8109 30.4589 -110.905
rradius 109.172
rwrist -9.47466
rhand -8.72287 -2.21959
rfingers 7.12502
rthumb 17.2132 -31.4772
lclavicle -1.40935e-016 6.63133e-015
lhumerus -42.4464 -35.5063 106.797
lradius 105.514
lwrist 7.43875
lhand -12.2471 43.5338
lfingers 7.12502
lthumb 13.8189 73.0548
rfemur -8.19784 4.51921 20.1633
rtibia 11.1438
rfoot -15.3555 -9.42235
rtoes 5.304
lfemur -14.1513 -2.6907 -17.7421
ltibia 24.5067
lfoot -19.3634 10.5796
ltoes 0.222251
73
root -14.638 17.5155 0.357882 31.2456 89.3918 24.8839
lowerback -5.81381 1.10966 2.99848
upperback 0.52104 1.30322 -0.877711
thorax 3.88928 0.720761 -2.47299
lowerneck -4.03414 -10.8309 -4.44839
upperneck 8.00623 -14.3372 1.98151
head 3.83501 -7.14496 0.697609
rclavicle 1.02405e-014 -3.10601e-015
rhumerus -44.2231 29.9828 -111.182
rradius 109.236
rwrist -9.61819
rhand -8.97994 -2.30668
rfingers 7.12502
rthumb 16.9657 -31.5857
lclavicle 1.02405e-014 -3.10601e-015
lhumerus -42.9612 -35.4047 107.134
lradius 105.571
lwrist 7.46293
lhand -11.8819 43.1287
lfingers 7.12502
lthumb 14.1708 72.6253
rfemur -7.96065 4.73191 20.154
rtibia 10.8975
rfoot -15.2783 -9.70342
rtoes 4.98608
lfemur -12.9554 -2.81771 -17.7838
ltibia 22.5413
lfoot -19.3798 10.5675
ltoes 1.02384
74
root -14.6202 17.5244 0.336484 44.6685 89.4178 38.1508
lowerback -5.98119 0.966759 2.74332
upperback 0.322667 1.12557 -0.78884
thorax 3.75858 0.622421 -2.25309
lowerneck -3.79447 -10.7463 -4.43251
upperneck 7.85354 -14.2163 1.81165
head 3.71361 -7.09421 0.669051
rclavicle 3.40108e-016 -1.2424e-016
rhumerus -44.3321 29.7152 -111.264
rradius 109.224
rwrist -9.71455
rhand -9.18255 -2.4043
rfingers 7.12502
rthumb 16.7707 -31.7
lclavicle 3.40108e-016 -1.2424e-016
lhumerus -43.0799 -35.2598 107.297
lradius 105.536
lwrist 7.44099
lhand -11.6978 42.6426
lfingers 7.12502
lthumb 14.3482 72.1268
rfemur -7.9804 4.97154 19.9729
rtibia 10.7672
rfoot -15.2003 -10.0895
rtoes 5.02441
lfemur -12.1081 -2.81924 -17.9461
ltibia 20.7978
lfoot -19.5026 10.2448
ltoes 3.35272
75
root -14.6138 17.5464 0.298319 69.4723 89.2425 62.6152
lowerback -6.21943 0.877555 2.59922
upperback 0.110401 1.01795 -0.879878
thorax 3.66498 0.56416 -2.2749
lowerneck -3.65404 -10.6713 -4.35364
upperneck 7.65144 -14.1126 1.67406
head 3.59249 -7.04817 0.635382
rclavicle 1.02809e-015 9.81499e-015
rhumerus -44.2656 29.3036 -111.293
rradius 109.195
rwrist -9.7794
rhand -9.41627 -2.53546
rfingers 7.12502
rthumb 16.5457 -31.8501
lclavicle 1.02809e-015 9.81499e-015
lhumerus -43.0942 -35.3869 107.335
lradius 105.531
lwrist 7.43842
lhand -11.5638 42.2967
lfingers 7.12502
lthumb 14.4773 71.7717
rfemur -8.29545 4.96703 19.4709
rtibia 10.8176
rfoot -15.183 -10.328
rtoes 4.76408
lfemur -11.6595 -2.77016 -18.4153
ltibia 19.2814
lfoot -19.4182 9.77816
ltoes 6.11086
76
root -14.6096 17.5519 0.268676 71.151 89.4536 64.5286
lowerback -5.96346 0.83915 2.89794
upperback 0.157779 0.94952 -0.841631
thorax 3.57063 0.5341 -2.41241
lowerneck -3.77906 -10.6156 -4.33553
upperneck 7.63531 -14.0307 1.62475
head 3.6017 -7.00827 0.614861
rclavicle 6.80837e-015 -5.81445e-015
rhumerus -44.083 28.8179 -111.303
rradius 109.193
rwrist -9.73537
rhand -9.69341 -2.57374
rfingers 7.12502
rthumb 16.2789 -31.9104
lclavicle 6.80837e-015 -5.81445e-015
lhumerus -42.868 -35.7156 107.174
lradius 105.566
lwrist 7.47044
lhand -11.4294 42.1473
lfingers 7.12502
lthumb 14.6068 71.6129
rfemur -7.96617 5.29016 19.6559
rtibia 10.8004
rfoot -15.1329 -10.7934
rtoes 3.96372
lfemur -10.7511 -2.57242 -18.2358
ltibia 17.9796
lfoot -19.2345 9.27136
ltoes 8.56887
77
root -14.6117 17.5521 0.235671 86.9487 89.3855 80.6731
lowerback -5.49384 0.756882 2.94703
upperback 0.181266 0.851102 -0.897022
thorax 3.32622 0.482764 -2.51067
lowerneck -3.93875 -10.5185 -4.29171
upperneck 7.78483 -13.8901 1.52193
head 3.66708 -6.93951 0.569321
rclavicle 1.39739e-014 -1.44119e-015
rhumerus -44.1573 28.2598 -111.501
rradius 109.308
rwrist -9.5299
rhand -9.89766 -2.55504
rfingers 7.12502
rthumb 16.0822 -31.9077
lclavicle 1.39739e-014 -1.44119e-015
lhumerus -42.6319 -36.0139 106.961
lradius 105.604
lwrist 7.45694
lhand -11.2842 41.9362
lfingers 7.12502
lthumb 14.7467 71.3916
rfemur -7.573 5.3681 19.4679
rtibia 10.7987
rfoot -15.043 -11.1044
rtoes 3.27794
lfemur -9.9223 -2.51551 -18.4376
ltibia 17.0905
lfoot -19.0447 8.86922
ltoes 9.9189
